<svg viewBox="0 0 330 200" xmlns="http://www.w3.org/2000/svg"><g><g><g><g><g><line x1="53.1875" y1="177" x2="48.1875" y2="177" style="visibility: inherit;" fill="rgb(0, 0, 0)" stroke="rgb(204, 204, 204)" stroke-width="1px"></line><line x1="53.1875" y1="159.29999999999998" x2="48.1875" y2="159.29999999999998" style="visibility: inherit;" fill="rgb(0, 0, 0)" stroke="rgb(204, 204, 204)" stroke-width="1px"></line><line x1="53.1875" y1="141.6" x2="48.1875" y2="141.6" style="visibility: inherit;" fill="rgb(0, 0, 0)" stroke="rgb(204, 204, 204)" stroke-width="1px"></line><line x1="53.1875" y1="123.89999999999999" x2="48.1875" y2="123.89999999999999" style="visibility: inherit;" fill="rgb(0, 0, 0)" stroke="rgb(204, 204, 204)" stroke-width="1px"></line><line x1="53.1875" y1="106.20000000000002" x2="48.1875" y2="106.20000000000002" style="visibility: inherit;" fill="rgb(0, 0, 0)" stroke="rgb(204, 204, 204)" stroke-width="1px"></line><line x1="53.1875" y1="88.5" x2="48.1875" y2="88.5" style="visibility: inherit;" fill="rgb(0, 0, 0)" stroke="rgb(204, 204, 204)" stroke-width="1px"></line><line x1="53.1875" y1="70.79999999999998" x2="48.1875" y2="70.79999999999998" style="visibility: inherit;" fill="rgb(0, 0, 0)" stroke="rgb(204, 204, 204)" stroke-width="1px"></line><line x1="53.1875" y1="53.10000000000001" x2="48.1875" y2="53.10000000000001" style="visibility: inherit;" fill="rgb(0, 0, 0)" stroke="rgb(204, 204, 204)" stroke-width="1px"></line><line x1="53.1875" y1="35.39999999999999" x2="48.1875" y2="35.39999999999999" style="visibility: inherit;" fill="rgb(0, 0, 0)" stroke="rgb(204, 204, 204)" stroke-width="1px"></line><line x1="53.1875" y1="17.700000000000017" x2="48.1875" y2="17.700000000000017" style="visibility: inherit;" fill="rgb(0, 0, 0)" stroke="rgb(204, 204, 204)" stroke-width="1px"></line><line x1="53.1875" y1="0" x2="48.1875" y2="0" style="visibility: inherit;" fill="rgb(0, 0, 0)" stroke="rgb(204, 204, 204)" stroke-width="1px"></line></g><g transform="translate(43.1875, 0)"><text x="0" y="177" dx="0em" dy="0.3em" style="text-anchor: end; visibility: hidden; font-family: Roboto, sans-serif; font-size: 12px; font-weight: 200;" fill="rgb(50, 49, 63)" stroke="none" stroke-width="1px">0.5</text><text x="0" y="159.29999999999998" dx="0em" dy="0.3em" style="text-anchor: end; visibility: inherit; font-family: Roboto, sans-serif; font-size: 12px; font-weight: 200;" fill="rgb(50, 49, 63)" stroke="none" stroke-width="1px">0.55</text><text x="0" y="141.6" dx="0em" dy="0.3em" style="text-anchor: end; visibility: hidden; font-family: Roboto, sans-serif; font-size: 12px; font-weight: 200;" fill="rgb(50, 49, 63)" stroke="none" stroke-width="1px">0.6</text><text x="0" y="123.89999999999999" dx="0em" dy="0.3em" style="text-anchor: end; visibility: inherit; font-family: Roboto, sans-serif; font-size: 12px; font-weight: 200;" fill="rgb(50, 49, 63)" stroke="none" stroke-width="1px">0.65</text><text x="0" y="106.20000000000002" dx="0em" dy="0.3em" style="text-anchor: end; visibility: hidden; font-family: Roboto, sans-serif; font-size: 12px; font-weight: 200;" fill="rgb(50, 49, 63)" stroke="none" stroke-width="1px">0.7</text><text x="0" y="88.5" dx="0em" dy="0.3em" style="text-anchor: end; visibility: inherit; font-family: Roboto, sans-serif; font-size: 12px; font-weight: 200;" fill="rgb(50, 49, 63)" stroke="none" stroke-width="1px">0.75</text><text x="0" y="70.79999999999998" dx="0em" dy="0.3em" style="text-anchor: end; visibility: hidden; font-family: Roboto, sans-serif; font-size: 12px; font-weight: 200;" fill="rgb(50, 49, 63)" stroke="none" stroke-width="1px">0.8</text><text x="0" y="53.10000000000001" dx="0em" dy="0.3em" style="text-anchor: end; visibility: inherit; font-family: Roboto, sans-serif; font-size: 12px; font-weight: 200;" fill="rgb(50, 49, 63)" stroke="none" stroke-width="1px">0.85</text><text x="0" y="35.39999999999999" dx="0em" dy="0.3em" style="text-anchor: end; visibility: hidden; font-family: Roboto, sans-serif; font-size: 12px; font-weight: 200;" fill="rgb(50, 49, 63)" stroke="none" stroke-width="1px">0.9</text><text x="0" y="17.700000000000017" dx="0em" dy="0.3em" style="text-anchor: end; visibility: inherit; font-family: Roboto, sans-serif; font-size: 12px; font-weight: 200;" fill="rgb(50, 49, 63)" stroke="none" stroke-width="1px">0.95</text><text x="0" y="0" dx="0em" dy="0.3em" style="text-anchor: end; visibility: hidden; font-family: Roboto, sans-serif; font-size: 12px; font-weight: 200;" fill="rgb(50, 49, 63)" stroke="none" stroke-width="1px">1</text></g><line x1="53.1875" y1="0" x2="53.1875" y2="177" fill="rgb(0, 0, 0)" stroke="rgb(204, 204, 204)" stroke-width="1px"></line></g></g><g transform="translate(53, 0)" clip-path="url(#clip_0)"><clipPath id="clip_0"><rect width="276" height="177"></rect></clipPath><g><g><g><line x1="0" y1="0" x2="0" y2="177" fill="rgb(0, 0, 0)" stroke="rgb(60, 60, 60)" stroke-width="1px" opacity="0.25"></line><line x1="23.067708333333332" y1="0" x2="23.067708333333332" y2="177" fill="rgb(0, 0, 0)" stroke="rgb(60, 60, 60)" stroke-width="1px" opacity="0.25"></line><line x1="46.135416666666664" y1="0" x2="46.135416666666664" y2="177" fill="rgb(0, 0, 0)" stroke="rgb(60, 60, 60)" stroke-width="1px" opacity="0.25"></line><line x1="69.203125" y1="0" x2="69.203125" y2="177" fill="rgb(0, 0, 0)" stroke="rgb(60, 60, 60)" stroke-width="1px" opacity="0.25"></line><line x1="92.27083333333333" y1="0" x2="92.27083333333333" y2="177" fill="rgb(0, 0, 0)" stroke="rgb(60, 60, 60)" stroke-width="1px" opacity="0.25"></line><line x1="115.33854166666667" y1="0" x2="115.33854166666667" y2="177" fill="rgb(0, 0, 0)" stroke="rgb(60, 60, 60)" stroke-width="1px" opacity="0.25"></line><line x1="138.40625" y1="0" x2="138.40625" y2="177" fill="rgb(0, 0, 0)" stroke="rgb(60, 60, 60)" stroke-width="1px" opacity="0.25"></line><line x1="161.47395833333334" y1="0" x2="161.47395833333334" y2="177" fill="rgb(0, 0, 0)" stroke="rgb(60, 60, 60)" stroke-width="1px" opacity="0.25"></line><line x1="184.54166666666666" y1="0" x2="184.54166666666666" y2="177" fill="rgb(0, 0, 0)" stroke="rgb(60, 60, 60)" stroke-width="1px" opacity="0.25"></line><line x1="207.609375" y1="0" x2="207.609375" y2="177" fill="rgb(0, 0, 0)" stroke="rgb(60, 60, 60)" stroke-width="1px" opacity="0.25"></line><line x1="230.67708333333334" y1="0" x2="230.67708333333334" y2="177" fill="rgb(0, 0, 0)" stroke="rgb(60, 60, 60)" stroke-width="1px" opacity="0.25"></line><line x1="253.74479166666666" y1="0" x2="253.74479166666666" y2="177" fill="rgb(0, 0, 0)" stroke="rgb(60, 60, 60)" stroke-width="1px" opacity="0.25"></line><line x1="276.8125" y1="0" x2="276.8125" y2="177" fill="rgb(0, 0, 0)" stroke="rgb(60, 60, 60)" stroke-width="1px" opacity="0.25"></line></g><g><line x1="0" y1="177" x2="276.8125" y2="177" fill="rgb(0, 0, 0)" stroke="rgb(60, 60, 60)" stroke-width="1px" opacity="0.25"></line><line x1="0" y1="159.29999999999998" x2="276.8125" y2="159.29999999999998" fill="rgb(0, 0, 0)" stroke="rgb(60, 60, 60)" stroke-width="1px" opacity="0.25"></line><line x1="0" y1="141.6" x2="276.8125" y2="141.6" fill="rgb(0, 0, 0)" stroke="rgb(60, 60, 60)" stroke-width="1px" opacity="0.25"></line><line x1="0" y1="123.89999999999999" x2="276.8125" y2="123.89999999999999" fill="rgb(0, 0, 0)" stroke="rgb(60, 60, 60)" stroke-width="1px" opacity="0.25"></line><line x1="0" y1="106.20000000000002" x2="276.8125" y2="106.20000000000002" fill="rgb(0, 0, 0)" stroke="rgb(60, 60, 60)" stroke-width="1px" opacity="0.25"></line><line x1="0" y1="88.5" x2="276.8125" y2="88.5" fill="rgb(0, 0, 0)" stroke="rgb(60, 60, 60)" stroke-width="1px" opacity="0.25"></line><line x1="0" y1="70.79999999999998" x2="276.8125" y2="70.79999999999998" fill="rgb(0, 0, 0)" stroke="rgb(60, 60, 60)" stroke-width="1px" opacity="0.25"></line><line x1="0" y1="53.10000000000001" x2="276.8125" y2="53.10000000000001" fill="rgb(0, 0, 0)" stroke="rgb(60, 60, 60)" stroke-width="1px" opacity="0.25"></line><line x1="0" y1="35.39999999999999" x2="276.8125" y2="35.39999999999999" fill="rgb(0, 0, 0)" stroke="rgb(60, 60, 60)" stroke-width="1px" opacity="0.25"></line><line x1="0" y1="17.700000000000017" x2="276.8125" y2="17.700000000000017" fill="rgb(0, 0, 0)" stroke="rgb(60, 60, 60)" stroke-width="1px" opacity="0.25"></line><line x1="0" y1="0" x2="276.8125" y2="0" fill="rgb(0, 0, 0)" stroke="rgb(60, 60, 60)" stroke-width="1px" opacity="0.25"></line></g></g></g><g><g><line x1="0" y1="354" x2="276.8125" y2="354" fill="rgb(0, 0, 0)" stroke="rgb(153, 153, 153)" stroke-width="1.5px"></line></g></g><g><g><line x1="23.067708333333332" y1="0" x2="23.067708333333332" y2="177" fill="rgb(0, 0, 0)" stroke="rgb(153, 153, 153)" stroke-width="1.5px"></line></g></g><g><g><g><g><g><path stroke="rgb(204, 51, 17)" stroke-width="2px" d="M196.07552083333334,34.713244199752765L197.22890625,34.558369874954224L198.38229166666667,34.74936833673592L199.53567708333333,34.378109947285246L200.6890625,34.13654396949258L201.84244791666666,33.858661329803894L202.9958333333333,33.60140288652881L204.14921875000002,33.63895696080286L205.30260416666667,33.887087211559404L206.45598958333335,33.72379219086469L207.609375,33.51560117850561L208.76276041666665,32.69865399659068L209.91614583333333,32.45349740288567L211.06953124999998,32.03168739419496L212.2229166666667,32.17831499639648L213.37630208333334,32.575019737755056L214.5296875,32.59486929034875L215.68307291666667,32.23857746495632L216.83645833333333,31.956853925065154L217.98984375,31.615074189932557L219.14322916666666,31.43833966724705L220.2966145833333,30.955635367291592L221.45000000000002,30.889746609607972L222.60338541666667,30.674626727786297L223.75677083333335,30.285011363920578L224.91015625,30.541186717773588L226.06354166666665,30.541958373159215L227.21692708333333,30.856778458191513L228.37031249999998,30.7284859634205L229.5236979166667,30.592033678928754L230.67708333333334,30.702738236949433L231.83046875,30.2877254343935L232.98385416666667,29.834815376642993L234.13723958333333,30.13229792591532L235.290625,30.330613051942397L236.44401041666666,29.857712117974778L237.5973958333333,29.542819455191683L238.75078125000002,29.342557354973298L239.90416666666667,29.069466974249952L241.05755208333335,29.123677483816724L242.2109375,29.1392140338664L243.36432291666665,28.941797730222365L244.51770833333333,29.28496627632455L245.67109374999998,29.100052384247196L246.8244791666667,29.02875525218091L247.97786458333334,28.5611740020332L249.13125,28.113538221546197L250.28463541666667,29.02590090993793L251.43802083333333,28.81434149124192L252.59140625,28.508992305860176" style="fill: none;" fill="none"></path></g><g><path stroke="rgb(0, 119, 187)" stroke-width="2px" d="M115.33854166666667,49.22015762329097L116.49192708333334,48.12718851864334L117.6453125,48.51505658334613L118.79869791666665,48.988760729923L119.95208333333333,49.34093136269547L121.10546875,48.749609723607115L122.25885416666667,48.43046107867111L123.41223958333335,48.33984024519216L124.565625,47.768645909262865L125.71901041666666,48.139089037369196L126.87239583333333,48.081372490325826L128.02578125,47.754545072145945L129.17916666666667,47.0229555041286L130.33255208333333,47.08626797558878L131.4859375,47.668227613194254L132.63932291666669,47.30052761223999L133.79270833333334,46.89869394675125L134.94609375,46.300773971418465L136.09947916666667,46.01569605386146L137.25286458333335,45.33770910342391L138.40625,45.149002319107026L139.55963541666665,44.86869166826103L140.71302083333333,44.12277542492789L141.86640624999998,43.49681506945073L143.0197916666667,43.43842596139236L144.17317708333334,43.174000970424984L145.3265625,43.4543035943617L146.47994791666667,43.13821335212579L147.63333333333333,43.138307878864055L148.78671875,43.07038867729958L149.94010416666666,42.26783262728423L151.0934895833333,42.16295176528908L152.24687500000002,41.607261236495525L153.40026041666667,41.11242315304308L154.55364583333335,41.03358505311402L155.70703125,41.31195716038053L156.86041666666665,40.62654706992538L158.01380208333333,40.603288633485676L159.16718749999998,40.83288716299431L160.3205729166667,40.59964842182865L161.47395833333334,40.75140906931693L162.62734375,40.159946546041844L163.78072916666667,39.654971757435376L164.93411458333333,39.334997128731324L166.0875,38.79751178693331L167.24088541666666,39.248151523329454L168.3942708333333,38.807708634394416L169.54765625000002,38.693540175827565L170.70104166666667,38.9478866577613L171.85442708333335,38.72949668886883L173.0078125,39.17336295320388L174.16119791666665,38.75717224045751L175.31458333333333,38.096817191624396L176.46796874999998,38.08292008410918L177.6213541666667,38.9751570282645L178.77473958333334,38.82232547153626L179.928125,38.47291903704154L181.08151041666667,37.90360382205093L182.23489583333333,37.31280629042287L183.38828125,37.32648134352864L184.54166666666666,36.95237045360865L185.6950520833333,36.36540515943327L186.84843750000002,36.33890938594319L188.00182291666667,35.909535454716575L189.15520833333335,35.841659573916374L190.30859375,35.537554853083975L191.46197916666665,35.389079971863204L192.61536458333333,35.26317968592254L193.76874999999998,35.340564195067934L194.9221354166667,35.18309251293615" style="fill: none;" fill="none"></path></g><g><path stroke="rgb(255, 112, 67)" stroke-width="2px" d="M80.73697916666667,64.06692945957184L81.89036458333334,63.30139347910881L83.04375,62.72027296192792L84.19713541666665,62.73394967878568L85.35052083333333,62.80541733616677L86.50390625,62.82971173534457L87.65729166666667,62.581321462904484L88.81067708333335,61.394116523262355L89.9640625,60.39715567758575L91.11744791666666,59.415109004146444L92.27083333333333,58.75011250677427L93.42421875000001,58.82947218258409L94.57760416666667,58.2956545388957L95.73098958333333,57.45148553084681L96.88437499999999,57.22590853707166L98.03776041666667,56.39658902845829L99.19114583333334,56.32684985574201L100.34453125,55.60527024763408L101.49791666666665,54.89198335354861L102.65130208333333,54.30543686425561L103.8046875,53.59102442351272L104.95807291666667,53.49656544863379L106.11145833333335,52.66391794398436L107.26484375,52.2124757387202L108.41822916666666,51.70938403734198L109.57161458333333,51.83516947821977L110.72500000000001,51.752044070496964L111.87838541666667,51.44728862926461L113.03177083333333,50.84246820388478L114.18515624999999,50.337977883021026" style="fill: none;" fill="none"></path></g><g><path stroke="rgb(187, 187, 187)" stroke-width="2px" d="M23.067708333333332,176.68141043186188L24.221093749999998,168.05708384513852L25.374479166666664,157.64704328897048L26.527864583333336,151.0858974171912L27.681250000000002,147.12515430703587L28.834635416666668,143.05427974030357L29.988020833333334,138.4700651127631L31.14140625,133.62549872460627L32.29479166666667,128.44551519605233L33.448177083333334,126.61055393269129L34.6015625,124.54178854667816L35.75494791666667,121.92882684559859L36.90833333333333,117.40422250602418L38.061718750000004,115.47548795206602L39.21510416666666,112.31321055608873L40.368489583333336,108.84742990873187L41.521875,104.97279624363361L42.67526041666667,103.09027342820104L43.82864583333333,100.45416273424247L44.98203125,98.64036354944716L46.135416666666664,97.68240101236759L47.28880208333334,96.64884841895422L48.442187499999996,94.47677973854218L49.59557291666667,92.54201375168392L50.74895833333333,91.07812876985301L51.90234375,88.8517669577977L53.05572916666667,86.8730923749881L54.20911458333333,85.00620543859782L55.362500000000004,83.88607401048839L56.51588541666666,82.93646225437254L57.669270833333336,82.0041965267543L58.82265625,80.84162061626695L59.97604166666667,80.31116216758036L61.12942708333333,79.21125705297017L62.2828125,77.91694538308546L63.436197916666664,76.39554370570549L64.58958333333334,75.81687677221026L65.74296875,75.05337273979713L66.89635416666667,73.80797702931778L68.04973958333333,72.22246860568426L69.203125,70.6594479494952L70.35651041666667,69.33365638273708L71.50989583333335,68.74208383076844L72.66328125,68.22854392706469L73.81666666666666,67.61456218343028L74.97005208333333,67.44158486711527L76.12343750000001,66.93282110800953L77.27682291666667,66.32737674300863L78.43020833333333,65.64408997287427L79.58359374999999,64.65639025919872" style="fill: none;" fill="none"></path></g><g><path style="fill: none;" fill="none" stroke="none" stroke-width="1px"></path></g><g><path stroke="rgb(51, 187, 238)" stroke-width="2px" d="M205.30260416666667,70.5663549900055L206.45598958333335,70.15040718019009L207.609375,71.0453410659518L208.76276041666665,70.54215238593962L209.91614583333333,71.00712978947419L211.06953124999998,70.67663811931482L212.2229166666667,70.74488131185042L213.37630208333334,71.49891784593125L214.5296875,70.78738386553862L215.68307291666667,70.85514255285374L216.83645833333333,70.43792777524123L217.98984375,70.45819066371318L219.14322916666666,70.02511853419537L220.2966145833333,69.7741348552861L221.45000000000002,69.60100691953943L222.60338541666667,69.04109852771845L223.75677083333335,68.40218134611138L224.91015625,68.32762525995439L226.06354166666665,68.38768565975995L227.21692708333333,67.93943051528423L228.37031249999998,68.19158604185053L229.5236979166667,67.5414096277413L230.67708333333334,67.29290855147661L231.83046875,67.04751654350348L232.98385416666667,67.31942299352777L234.13723958333333,67.0605985240583L235.290625,66.52864262950777L236.44401041666666,66.85233754421455L237.5973958333333,66.99557664012762L238.75078125000002,67.26560533065339L239.90416666666667,66.94335110692555L241.05755208333335,66.74999860004577L242.2109375,67.2032156867201L243.36432291666665,67.38452545223048L244.51770833333333,67.27524656714344L245.67109374999998,67.60898491882605L246.8244791666667,67.31646593117476L247.97786458333334,66.80677203766248L249.13125,66.5575966616786L250.28463541666667,66.21551555232078L251.43802083333333,66.11504970683073L252.59140625,66.77410446850433" style="fill: none;" fill="none"></path></g><g><path stroke="rgb(204, 51, 17)" stroke-width="2px" d="M103.8046875,90.77975428104405L104.95807291666667,94.53657759726048L106.11145833333335,92.84741005605582L107.26484375,91.75729644692998L108.41822916666666,92.22383918636464L109.57161458333333,92.01897126845975L110.72500000000001,90.86803186973046L111.87838541666667,89.59067929627115L113.03177083333333,89.33019604086603L114.18515624999999,88.50032930427864L115.33854166666667,87.48264833975247L116.49192708333334,89.94531695737699L117.6453125,89.12540156319064L118.79869791666665,87.86039249789867L119.95208333333333,86.90368940933413L121.10546875,86.0523441077203L122.25885416666667,85.97505764729519L123.41223958333335,85.84089216309789L124.565625,84.84278071323247L125.71901041666666,84.16181995496174L126.87239583333333,84.15540977974504L128.02578125,84.2506846371297L129.17916666666667,84.217227563269L130.33255208333333,83.8403162888773L131.4859375,83.63399632519572L132.63932291666669,83.42241150851797L133.79270833333334,82.83101464012329L134.94609375,82.17031891720868L136.09947916666667,81.98913915382289L137.25286458333335,82.07017141838044L138.40625,83.0165386874655L139.55963541666665,83.51071980828226L140.71302083333333,82.5838056314483L141.86640624999998,81.54904905623798L143.0197916666667,80.75828069082456L144.17317708333334,81.14474369466497L145.3265625,80.93482876516725L146.47994791666667,80.41523738130127L147.63333333333333,80.13746206355312L148.78671875,79.50068788677105L149.94010416666666,79.26872065614722L151.0934895833333,79.02474905807593L152.24687500000002,79.24370070558444L153.40026041666667,78.76619193701613L154.55364583333335,78.61844900695142L155.70703125,79.39922635230917L156.86041666666665,78.6187811402595L158.01380208333333,78.44220946479139L159.16718749999998,77.6820806875621L160.3205729166667,77.41857930509795L161.47395833333334,77.82404377751875L162.62734375,77.39613849337772L163.78072916666667,77.97483891496685L164.93411458333333,77.64520350843414L166.0875,77.71363730281448L167.24088541666666,77.14298197656761L168.3942708333333,77.30468571799932L169.54765625000002,76.55493786703296L170.70104166666667,75.7454262421771L171.85442708333335,75.49194635428456L173.0078125,75.73633669303337L174.16119791666665,77.66429571203288L175.31458333333333,75.96924822266035L176.46796874999998,75.03717694720707L177.6213541666667,74.63369470859222L178.77473958333334,73.71475814595608L179.928125,73.78361090907335L181.08151041666667,73.3349795394473L182.23489583333333,73.09412541707353L183.38828125,73.63495926094049L184.54166666666666,73.68191802520747L185.6950520833333,73.38724572669979L186.84843750000002,73.13964747912595L188.00182291666667,73.4073924036438L189.15520833333335,73.34713877508727L190.30859375,72.92017157834582L191.46197916666665,72.60735030151496L192.61536458333333,72.25540635095291L193.76874999999998,72.22265351478012L194.9221354166667,72.54850237765166L196.07552083333334,72.59675026654155L197.22890625,72.19523277711244L198.38229166666667,71.45306119222266L199.53567708333333,70.75854139863746L200.6890625,71.14044931733191L201.84244791666666,71.54235279085388L202.9958333333333,71.7551701755652L204.14921875000002,71.37876366921238" style="fill: none;" fill="none"></path></g><g><path stroke="rgb(0, 119, 187)" stroke-width="2px" d="M80.73697916666667,98.66688752174377L81.89036458333334,98.49873335659504L83.04375,98.84460587404216L84.19713541666665,98.3041630220764L85.35052083333333,97.30379340112583L86.50390625,96.31614958122768L87.65729166666667,97.71472726054971L88.81067708333335,100.99975425892116L89.9640625,101.89375722714543L91.11744791666666,100.79174921373038L92.27083333333333,98.68525060280427L93.42421875000001,99.01562599244355L94.57760416666667,96.39187031441298L95.73098958333333,95.4178336721041L96.88437499999999,95.29856463790652L98.03776041666667,95.00891284462267L99.19114583333334,93.6087078629989L100.34453125,92.72625365085676L101.49791666666665,92.66414854111898L102.65130208333333,92.32951832148738" style="fill: none;" fill="none"></path></g><g><path stroke="rgb(255, 112, 67)" stroke-width="2px" d="M25.374479166666664,186.80668339133263L26.527864583333336,176.5185628740155L27.681250000000002,168.04924052427796L28.834635416666668,161.77019938257817L29.988020833333334,155.87089650396953L31.14140625,151.66760618156894L32.29479166666667,150.21308114393986L33.448177083333334,154.45988195974428L34.6015625,149.45844273168305L35.75494791666667,144.42769297110914L36.90833333333333,140.21188461953787L38.061718750000004,139.45776247595686L39.21510416666666,137.30255436538792L40.368489583333336,133.5625059237667L41.521875,130.1581564139308L42.67526041666667,128.7478095922914L43.82864583333333,128.44272153356906L44.98203125,126.28849511949497L46.135416666666664,124.06428190618075L47.28880208333334,121.89151663710584L48.442187499999996,120.55107213913824L49.59557291666667,119.65052380967263L50.74895833333333,119.59447299390729L51.90234375,118.33458057644874L53.05572916666667,117.0292435290233L54.20911458333333,116.5292393693974L55.362500000000004,115.68266131922806L56.51588541666666,114.296792297216L57.669270833333336,113.66634623695548L58.82265625,112.69052535756343L59.97604166666667,111.1931311277752L61.12942708333333,110.2154006960929L62.2828125,109.7278820376752L63.436197916666664,108.61408959507506L64.58958333333334,108.25167194636109L65.74296875,106.8929199589531L66.89635416666667,108.4763724512985L68.04973958333333,107.6819344805143L69.203125,107.242087056434L70.35651041666667,106.00680008443214L71.50989583333335,104.82950686703303L72.66328125,104.59040407704471L73.81666666666666,103.72195332254121L74.97005208333333,103.31982803939663L76.12343750000001,102.64242339486957L77.27682291666667,101.40337286202494L78.43020833333333,101.14421387796047L79.58359374999999,100.6035667197896" style="fill: none;" fill="none"></path></g><g><path style="fill: none;" fill="none" stroke="none" stroke-width="1px"></path></g></g></g></g><g opacity="0.2"><g><g><g><path stroke="rgb(204, 51, 17)" stroke-width="2px" d="M196.07552083333334,34.71324419975281L197.22890625,34.46544528007507L198.38229166666667,34.93272686004639L199.53567708333333,33.9415100812912L200.6890625,33.821155428886414L201.84244791666666,33.474249601364136L202.9958333333333,33.233519196510315L204.14921875000002,33.693711161613464L205.30260416666667,34.25303113460541L206.45598958333335,33.48131811618805L207.609375,33.20520293712616L208.76276041666665,31.477679014205933L209.91614583333333,32.08656299114227L211.06953124999998,31.39979875087738L212.2229166666667,32.39808404445648L213.37630208333334,33.16979706287384L214.5296875,32.624635219573975L215.68307291666667,31.704230189323425L216.83645833333333,31.534311532974243L217.98984375,31.10243582725525L219.14322916666666,31.173247575759888L220.2966145833333,30.231594800949097L221.45000000000002,30.79091477394104L222.60338541666667,30.351949453353882L223.75677083333335,29.70059108734131L224.91015625,30.925448656082153L226.06354166666665,30.543115854263306L227.21692708333333,31.329008102416992L228.37031249999998,30.536047339439392L229.5236979166667,30.3873553276062L230.67708333333334,30.868795037269592L231.83046875,29.66520631313324L232.98385416666667,29.155450344085693L234.13723958333333,30.578521728515625L235.290625,30.628085732460022L236.44401041666666,29.14836072921753L237.5973958333333,29.070480465888977L238.75078125000002,29.042164206504822L239.90416666666667,28.659831404685974L241.05755208333335,29.20499324798584L242.2109375,29.162518858909607L243.36432291666665,28.645673274993896L244.51770833333333,29.799719095230103L245.67109374999998,28.822681546211243L246.8244791666667,28.921809554100037L247.97786458333334,27.85980212688446L249.13125,27.442084550857544L250.28463541666667,30.394444942474365L251.43802083333333,28.497002363204956L252.59140625,28.050968527793884" style="fill: none;" fill="none"></path></g><g><path stroke="rgb(0, 119, 187)" stroke-width="2px" d="M115.33854166666667,49.220157623291016L116.49192708333334,47.4714070558548L117.6453125,48.887409925460815L118.79869791666665,49.5458368062973L119.95208333333333,49.8007253408432L121.10546875,47.93159902095795L122.25885416666667,47.97407341003418L123.41223958333335,48.207714200019836L124.565625,46.92624521255493L125.71901041666666,48.68915390968323L126.87239583333333,47.99532115459442L128.02578125,47.266082525253296L129.17916666666667,45.92795991897583L130.33255208333333,47.18111264705658L131.4859375,48.54048299789429L132.63932291666669,46.749236941337585L133.79270833333334,46.29611349105835L134.94609375,45.404045820236206L136.09947916666667,45.588122606277466L137.25286458333335,44.32079064846039L138.40625,44.865952491760254L139.55963541666665,44.44823491573334L140.71302083333333,43.003915786743164L141.86640624999998,42.55788195133209L143.0197916666667,43.35084271430969L144.17317708333334,42.77736461162567L145.3265625,43.874756813049316L146.47994791666667,42.6640784740448L147.63333333333333,43.13844966888428L148.78671875,42.968509912490845L149.94010416666666,41.06399881839752L151.0934895833333,42.00563049316406L152.24687500000002,40.773725509643555L153.40026041666667,40.370166063308716L154.55364583333335,40.91532790660858L155.70703125,41.72951531410217L156.86041666666665,39.59843194484711L158.01380208333333,40.56840097904205L159.16718749999998,41.177284955978394L160.3205729166667,40.24979031085968L161.47395833333334,40.979050040245056L162.62734375,39.27275276184082L163.78072916666667,38.89750957489014L164.93411458333333,38.855035185813904L166.0875,37.991283774375916L167.24088541666666,39.924111127853394L168.3942708333333,38.14704430103302L169.54765625000002,38.522287487983704L170.70104166666667,39.32940638065338L171.85442708333335,38.40191173553467L173.0078125,39.83916234970093L174.16119791666665,38.13288617134094L175.31458333333333,37.106284618377686L176.46796874999998,38.062074422836304L177.6213541666667,40.313512444496155L178.77473958333334,38.59307813644409L179.928125,37.94880938529968L181.08151041666667,37.049630999565125L182.23489583333333,36.42660999298096L183.38828125,37.346993923187256L184.54166666666666,36.39120411872864L185.6950520833333,35.484957218170166L186.84843750000002,36.29916572570801L188.00182291666667,35.26547455787659L189.15520833333335,35.739845752716064L190.30859375,35.08139777183533L191.46197916666665,35.16636765003204L192.61536458333333,35.074329257011414L193.76874999999998,35.45664095878601L194.9221354166667,34.946884989738464" style="fill: none;" fill="none"></path></g><g><path stroke="rgb(255, 112, 67)" stroke-width="2px" d="M80.73697916666667,64.06692945957184L81.89036458333334,62.842071890830994L83.04375,62.162397265434265L84.19713541666665,62.750033497810364L85.35052083333333,62.898725509643555L86.50390625,62.863319635391235L87.65729166666667,62.22611939907074L88.81067708333335,59.66316032409668L89.9640625,58.92683207988739L91.11744791666666,57.956884145736694L92.27083333333333,57.75864923000336L93.42421875000001,58.94807982444763L94.57760416666667,57.496671080589294L95.73098958333333,56.186885833740234L96.88437499999999,56.887808203697205L98.03776041666667,55.15319466590881L99.19114583333334,56.2222706079483L100.34453125,54.52308404445648L101.49791666666665,53.82216167449951L102.65130208333333,53.425670742988586L103.8046875,52.519444942474365L104.95807291666667,53.3548800945282L106.11145833333335,51.414963126182556L107.26484375,51.53531777858734L108.41822916666666,50.954750061035156L109.57161458333333,52.0238471031189L110.72500000000001,51.62735617160797L111.87838541666667,50.990155935287476L113.03177083333333,49.93523812294006L114.18515624999999,49.58124268054962" style="fill: none;" fill="none"></path></g><g><path stroke="rgb(187, 187, 187)" stroke-width="2px" d="M23.067708333333332,176.68141043186188L24.221093749999998,162.88248789310455L25.374479166666664,147.65340435504913L26.527864583333336,143.36998987197876L27.681250000000002,141.954008102417L28.834635416666668,137.42279469966888L29.988020833333334,131.91456484794617L31.14140625,126.5620744228363L32.29479166666667,120.80604565143585L33.448177083333334,123.88585031032562L34.6015625,121.45740401744843L35.75494791666667,118.02360391616821L36.90833333333333,110.63208961486816L38.061718750000004,112.58616471290588L39.21510416666666,107.57351160049438L40.368489583333336,103.65120327472687L41.521875,99.16248536109924L42.67526041666667,100.26696717739105L43.82864583333333,96.50039827823639L44.98203125,95.9198305606842L46.135416666666664,96.24550974369049L47.28880208333334,95.09855353832245L48.442187499999996,91.21871960163116L49.59557291666667,89.63988769054413L50.74895833333333,88.8823117017746L51.90234375,85.51223373413086L53.05572916666667,83.90508556365967L54.20911458333333,82.2058779001236L55.362500000000004,82.2058779001236L56.51588541666666,81.51204514503479L57.669270833333336,80.60579824447632L58.82265625,79.09775698184967L59.97604166666667,79.51547455787659L61.12942708333333,77.56139945983887L62.2828125,75.97547793388367L63.436197916666664,74.11344122886658L64.58958333333334,74.94887638092041L65.74296875,73.90811669826508L66.89635416666667,71.93988347053528L68.04973958333333,69.84420597553253L69.203125,68.31491696834564L70.35651041666667,67.34496903419495L71.50989583333335,67.85472500324249L72.66328125,67.45823407173157L73.81666666666666,66.69358956813812L74.97005208333333,67.18211889266968L76.12343750000001,66.1696754693985L77.27682291666667,65.41921019554138L78.43020833333333,64.61915981769562L79.58359374999999,63.174840688705444" style="fill: none;" fill="none"></path></g><g><path style="fill: none;" fill="none" stroke="none" stroke-width="1px"></path></g><g><path stroke="rgb(51, 187, 238)" stroke-width="2px" d="M205.30260416666667,70.5663549900055L206.45598958333335,69.90083849430084L207.609375,71.90447759628296L208.76276041666665,69.95040249824524L209.91614583333333,71.61420428752899L211.06953124999998,70.21944916248322L212.2229166666667,70.84247016906738L213.37630208333334,72.59831035137177L214.5296875,69.73800945281982L215.68307291666667,70.95575630664825L216.83645833333333,69.81588971614838L217.98984375,70.48847472667694L219.14322916666666,69.37692439556122L220.2966145833333,69.39815104007721L221.45000000000002,69.3415185213089L222.60338541666667,68.20163083076477L223.75677083333335,67.44407594203949L224.91015625,68.2158100605011L226.06354166666665,68.47776710987091L227.21692708333333,67.2670887708664L228.37031249999998,68.56980550289154L229.5236979166667,66.56616640090942L230.67708333333334,66.92016184329987L231.83046875,66.67943143844604L232.98385416666667,67.72728073596954L234.13723958333333,66.67236292362213L235.290625,65.73071014881134L236.44401041666666,67.33787941932678L237.5973958333333,67.21043515205383L238.75078125000002,67.67064821720123L239.90416666666667,66.45996987819672L241.05755208333335,66.45996987819672L242.2109375,67.88304126262665L243.36432291666665,67.65649008750916L244.51770833333333,67.11132824420929L245.67109374999998,68.10959243774414L246.8244791666667,66.87768745422363L247.97786458333334,66.04223120212555L249.13125,66.18383359909058L250.28463541666667,65.70239388942719L251.43802083333333,65.964350938797L252.59140625,67.76268661022186" style="fill: none;" fill="none"></path></g><g><path stroke="rgb(204, 51, 17)" stroke-width="2px" d="M103.8046875,90.779754281044L104.95807291666667,96.79067158699036L106.11145833333335,91.22580921649933L107.26484375,90.47532284259796L108.41822916666666,92.83295738697052L109.57161458333333,91.73556518554688L110.72500000000001,89.22217011451721L111.87838541666667,87.72828698158264L113.03177083333333,88.94603383541107L114.18515624999999,87.26807391643524L115.33854166666667,85.9653571844101L116.49192708333334,93.62591814994812L117.6453125,87.89820563793182L118.79869791666665,85.9653571844101L119.95208333333333,85.46975934505463L121.10546875,84.77592658996582L122.25885416666667,85.85916066169739L123.41223958333335,85.63967800140381L124.565625,83.34576559066772L125.71901041666666,83.14044106006622L126.87239583333333,84.14579486846924L128.02578125,84.39359378814697L129.17916666666667,84.16704261302948L130.33255208333333,83.27495384216309L131.4859375,83.32451784610748L132.63932291666669,83.1050351858139L133.79270833333334,81.94392085075378L134.94609375,81.17927634716034L136.09947916666667,81.71736967563629L137.25286458333335,82.19171977043152L138.40625,84.43608927726746L139.55963541666665,84.25199139118195L140.71302083333333,81.19343447685242L141.86640624999998,79.99691426753998L143.0197916666667,79.57212817668915L144.17317708333334,81.7244381904602L145.3265625,80.6199563741684L146.47994791666667,79.63585031032562L147.63333333333333,79.72079908847809L148.78671875,78.54552662372589L149.94010416666666,78.92076981067657L151.0934895833333,78.65879166126251L152.24687500000002,79.57212817668915L153.40026041666667,78.04992878437042L154.55364583333335,78.3968346118927L155.70703125,80.570392370224L156.86041666666665,77.448113322258L158.01380208333333,78.17735195159912L159.16718749999998,76.54188752174377L160.3205729166667,77.02332723140717L161.47395833333334,78.43224048614502L162.62734375,76.75428056716919L163.78072916666667,78.84288954734802L164.93411458333333,77.15075039863586L166.0875,77.81628799438477L167.24088541666666,76.28699898719788L168.3942708333333,77.54724133014679L169.54765625000002,75.4303160905838L170.70104166666667,74.5311588048935L171.85442708333335,75.11172652244568L173.0078125,76.10292220115662L174.16119791666665,80.55623424053192L175.31458333333333,73.42667698860168L176.46796874999998,73.6390700340271L177.6213541666667,74.02847135066986L178.77473958333334,72.33635330200195L179.928125,73.88689005374908L181.08151041666667,72.66203248500824L182.23489583333333,72.73284423351288L183.38828125,74.44621002674103L184.54166666666666,73.75235617160797L185.6950520833333,72.9452372789383L186.84843750000002,72.7682501077652L188.00182291666667,73.80900979042053L189.15520833333335,73.2567583322525L190.30859375,72.27972078323364L191.46197916666665,72.13811838626862L192.61536458333333,71.72749042510986L193.76874999999998,72.17352426052094L194.9221354166667,73.03727567195892L196.07552083333334,72.6691220998764L197.22890625,71.59295654296875L198.38229166666667,70.339803814888L199.53567708333333,69.71676170825958L200.6890625,71.71331119537354L201.84244791666666,72.14520800113678L202.9958333333333,72.07439625263214L204.14921875000002,70.81415390968323" style="fill: none;" fill="none"></path></g><g><path stroke="rgb(0, 119, 187)" stroke-width="2px" d="M80.73697916666667,98.66688752174377L81.89036458333334,98.3978408575058L83.04375,99.17664349079132L84.19713541666665,97.66860222816467L85.35052083333333,95.99771082401276L86.50390625,94.94988262653351L87.65729166666667,99.71471571922302L88.81067708333335,105.78935515880585L89.9640625,103.21223795413971L91.11744791666666,99.15539574623108L92.27083333333333,95.54460847377777L93.42421875000001,99.50939118862152L94.57760416666667,92.464803814888L95.73098958333333,93.95868694782257L96.88437499999999,95.11980128288269L98.03776041666667,94.57463943958282L99.19114583333334,91.50899291038513L100.34453125,91.40279638767242L101.49791666666665,92.57100033760071L102.65130208333333,91.8276035785675" style="fill: none;" fill="none"></path></g><g><path stroke="rgb(255, 112, 67)" stroke-width="2px" d="M25.374479166666664,180.59663969278336L26.527864583333336,166.64196717739105L27.681250000000002,158.08931744098663L28.834635416666668,153.57228326797485L29.988020833333334,147.71003687381744L31.14140625,145.65683376789093L32.29479166666667,148.0923696756363L33.448177083333334,160.72308826446533L34.6015625,142.03188836574554L35.75494791666667,136.92719686031342L36.90833333333333,133.91111433506012L38.061718750000004,138.32904160022736L39.21510416666666,134.0739644765854L40.368489583333336,127.95682954788208L41.521875,125.05403316020966L42.67526041666667,126.63288617134094L43.82864583333333,127.98516690731049L44.98203125,123.0574836730957L46.135416666666664,120.7281653881073L47.28880208333334,118.63248789310455L48.442187499999996,118.54044950008392L49.59557291666667,118.2997190952301L50.74895833333333,119.51039743423462L51.90234375,116.44475090503693L53.05572916666667,115.07124352455139L54.20911458333333,115.77923440933228L55.362500000000004,114.41279554367065L56.51588541666666,112.21799004077911L57.669270833333336,112.72067749500275L58.82265625,111.22679436206818L59.97604166666667,108.94704008102417L61.12942708333333,108.74880516529083L62.2828125,108.99660408496857L63.436197916666664,106.94340097904205L64.58958333333334,107.7080454826355L65.74296875,104.85479199886322L66.89635416666667,110.85155117511749L68.04973958333333,106.49027752876282L69.203125,106.58231592178345L70.35651041666667,104.15386962890625L71.50989583333335,103.06356704235077L72.66328125,104.2317498922348L73.81666666666666,102.41927719116211L74.97005208333333,102.71664011478424L76.12343750000001,101.62631642818451L77.27682291666667,99.54479706287384L78.43020833333333,100.75547540187836L79.58359374999999,99.79259598255157" style="fill: none;" fill="none"></path></g><g><path style="fill: none;" fill="none" stroke="none" stroke-width="1px"></path></g></g></g></g></g></g><g transform="translate(53, 177)" clip-path="url(#clip_1)"><clipPath id="clip_1"><rect width="276" height="23"></rect></clipPath><g><g><line x1="0" y1="0" x2="0" y2="5" style="visibility: inherit;" fill="rgb(0, 0, 0)" stroke="rgb(204, 204, 204)" stroke-width="1px"></line><line x1="23.067708333333332" y1="0" x2="23.067708333333332" y2="5" style="visibility: inherit;" fill="rgb(0, 0, 0)" stroke="rgb(204, 204, 204)" stroke-width="1px"></line><line x1="46.135416666666664" y1="0" x2="46.135416666666664" y2="5" style="visibility: inherit;" fill="rgb(0, 0, 0)" stroke="rgb(204, 204, 204)" stroke-width="1px"></line><line x1="69.203125" y1="0" x2="69.203125" y2="5" style="visibility: inherit;" fill="rgb(0, 0, 0)" stroke="rgb(204, 204, 204)" stroke-width="1px"></line><line x1="92.27083333333333" y1="0" x2="92.27083333333333" y2="5" style="visibility: inherit;" fill="rgb(0, 0, 0)" stroke="rgb(204, 204, 204)" stroke-width="1px"></line><line x1="115.33854166666667" y1="0" x2="115.33854166666667" y2="5" style="visibility: inherit;" fill="rgb(0, 0, 0)" stroke="rgb(204, 204, 204)" stroke-width="1px"></line><line x1="138.40625" y1="0" x2="138.40625" y2="5" style="visibility: inherit;" fill="rgb(0, 0, 0)" stroke="rgb(204, 204, 204)" stroke-width="1px"></line><line x1="161.47395833333334" y1="0" x2="161.47395833333334" y2="5" style="visibility: inherit;" fill="rgb(0, 0, 0)" stroke="rgb(204, 204, 204)" stroke-width="1px"></line><line x1="184.54166666666666" y1="0" x2="184.54166666666666" y2="5" style="visibility: inherit;" fill="rgb(0, 0, 0)" stroke="rgb(204, 204, 204)" stroke-width="1px"></line><line x1="207.609375" y1="0" x2="207.609375" y2="5" style="visibility: inherit;" fill="rgb(0, 0, 0)" stroke="rgb(204, 204, 204)" stroke-width="1px"></line><line x1="230.67708333333334" y1="0" x2="230.67708333333334" y2="5" style="visibility: inherit;" fill="rgb(0, 0, 0)" stroke="rgb(204, 204, 204)" stroke-width="1px"></line><line x1="253.74479166666666" y1="0" x2="253.74479166666666" y2="5" style="visibility: inherit;" fill="rgb(0, 0, 0)" stroke="rgb(204, 204, 204)" stroke-width="1px"></line><line x1="276.8125" y1="0" x2="276.8125" y2="5" style="visibility: inherit;" fill="rgb(0, 0, 0)" stroke="rgb(204, 204, 204)" stroke-width="1px"></line></g><g transform="translate(0, 8)"><text x="0" y="0" dx="0em" dy="0.95em" style="text-anchor: middle; visibility: hidden; font-family: Roboto, sans-serif; font-size: 12px; font-weight: 200;" fill="rgb(50, 49, 63)" stroke="none" stroke-width="1px">-20</text><text x="23.067708333333332" y="0" dx="0em" dy="0.95em" style="text-anchor: middle; visibility: inherit; font-family: Roboto, sans-serif; font-size: 12px; font-weight: 200;" fill="rgb(50, 49, 63)" stroke="none" stroke-width="1px">0</text><text x="46.135416666666664" y="0" dx="0em" dy="0.95em" style="text-anchor: middle; visibility: hidden; font-family: Roboto, sans-serif; font-size: 12px; font-weight: 200;" fill="rgb(50, 49, 63)" stroke="none" stroke-width="1px">20</text><text x="69.203125" y="0" dx="0em" dy="0.95em" style="text-anchor: middle; visibility: inherit; font-family: Roboto, sans-serif; font-size: 12px; font-weight: 200;" fill="rgb(50, 49, 63)" stroke="none" stroke-width="1px">40</text><text x="92.27083333333333" y="0" dx="0em" dy="0.95em" style="text-anchor: middle; visibility: hidden; font-family: Roboto, sans-serif; font-size: 12px; font-weight: 200;" fill="rgb(50, 49, 63)" stroke="none" stroke-width="1px">60</text><text x="115.33854166666667" y="0" dx="0em" dy="0.95em" style="text-anchor: middle; visibility: inherit; font-family: Roboto, sans-serif; font-size: 12px; font-weight: 200;" fill="rgb(50, 49, 63)" stroke="none" stroke-width="1px">80</text><text x="138.40625" y="0" dx="0em" dy="0.95em" style="text-anchor: middle; visibility: hidden; font-family: Roboto, sans-serif; font-size: 12px; font-weight: 200;" fill="rgb(50, 49, 63)" stroke="none" stroke-width="1px">100</text><text x="161.47395833333334" y="0" dx="0em" dy="0.95em" style="text-anchor: middle; visibility: inherit; font-family: Roboto, sans-serif; font-size: 12px; font-weight: 200;" fill="rgb(50, 49, 63)" stroke="none" stroke-width="1px">120</text><text x="184.54166666666666" y="0" dx="0em" dy="0.95em" style="text-anchor: middle; visibility: hidden; font-family: Roboto, sans-serif; font-size: 12px; font-weight: 200;" fill="rgb(50, 49, 63)" stroke="none" stroke-width="1px">140</text><text x="207.609375" y="0" dx="0em" dy="0.95em" style="text-anchor: middle; visibility: inherit; font-family: Roboto, sans-serif; font-size: 12px; font-weight: 200;" fill="rgb(50, 49, 63)" stroke="none" stroke-width="1px">160</text><text x="230.67708333333334" y="0" dx="0em" dy="0.95em" style="text-anchor: middle; visibility: hidden; font-family: Roboto, sans-serif; font-size: 12px; font-weight: 200;" fill="rgb(50, 49, 63)" stroke="none" stroke-width="1px">180</text><text x="253.74479166666666" y="0" dx="0em" dy="0.95em" style="text-anchor: middle; visibility: inherit; font-family: Roboto, sans-serif; font-size: 12px; font-weight: 200;" fill="rgb(50, 49, 63)" stroke="none" stroke-width="1px">200</text><text x="276.8125" y="0" dx="0em" dy="0.95em" style="text-anchor: middle; visibility: hidden; font-family: Roboto, sans-serif; font-size: 12px; font-weight: 200;" fill="rgb(50, 49, 63)" stroke="none" stroke-width="1px">220</text></g><line x1="0" y1="0" x2="276.8125" y2="0" fill="rgb(0, 0, 0)" stroke="rgb(204, 204, 204)" stroke-width="1px"></line></g></g></g></g></svg>