<svg viewBox="0 0 330 200" xmlns="http://www.w3.org/2000/svg"><g><g><g><g><g><line x1="51.5625" y1="178" x2="46.5625" y2="178" style="visibility: inherit;" fill="rgb(0, 0, 0)" stroke="rgb(204, 204, 204)" stroke-width="1px"></line><line x1="51.5625" y1="160.2" x2="46.5625" y2="160.2" style="visibility: inherit;" fill="rgb(0, 0, 0)" stroke="rgb(204, 204, 204)" stroke-width="1px"></line><line x1="51.5625" y1="142.39999999999998" x2="46.5625" y2="142.39999999999998" style="visibility: inherit;" fill="rgb(0, 0, 0)" stroke="rgb(204, 204, 204)" stroke-width="1px"></line><line x1="51.5625" y1="124.59999999999995" x2="46.5625" y2="124.59999999999995" style="visibility: inherit;" fill="rgb(0, 0, 0)" stroke="rgb(204, 204, 204)" stroke-width="1px"></line><line x1="51.5625" y1="106.80000000000001" x2="46.5625" y2="106.80000000000001" style="visibility: inherit;" fill="rgb(0, 0, 0)" stroke="rgb(204, 204, 204)" stroke-width="1px"></line><line x1="51.5625" y1="89" x2="46.5625" y2="89" style="visibility: inherit;" fill="rgb(0, 0, 0)" stroke="rgb(204, 204, 204)" stroke-width="1px"></line><line x1="51.5625" y1="71.19999999999999" x2="46.5625" y2="71.19999999999999" style="visibility: inherit;" fill="rgb(0, 0, 0)" stroke="rgb(204, 204, 204)" stroke-width="1px"></line><line x1="51.5625" y1="53.39999999999997" x2="46.5625" y2="53.39999999999997" style="visibility: inherit;" fill="rgb(0, 0, 0)" stroke="rgb(204, 204, 204)" stroke-width="1px"></line><line x1="51.5625" y1="35.59999999999995" x2="46.5625" y2="35.59999999999995" style="visibility: inherit;" fill="rgb(0, 0, 0)" stroke="rgb(204, 204, 204)" stroke-width="1px"></line><line x1="51.5625" y1="17.800000000000015" x2="46.5625" y2="17.800000000000015" style="visibility: inherit;" fill="rgb(0, 0, 0)" stroke="rgb(204, 204, 204)" stroke-width="1px"></line><line x1="51.5625" y1="0" x2="46.5625" y2="0" style="visibility: inherit;" fill="rgb(0, 0, 0)" stroke="rgb(204, 204, 204)" stroke-width="1px"></line></g><g transform="translate(41.5625, 0)"><text x="0" y="178" dx="0em" dy="0.3em" style="text-anchor: end; visibility: hidden; font-family: Roboto, sans-serif; font-size: 12px; font-weight: 200;" fill="rgb(50, 49, 63)" stroke="none" stroke-width="1px">1.45</text><text x="0" y="160.2" dx="0em" dy="0.3em" style="text-anchor: end; visibility: inherit; font-family: Roboto, sans-serif; font-size: 12px; font-weight: 200;" fill="rgb(50, 49, 63)" stroke="none" stroke-width="1px">1.5</text><text x="0" y="142.39999999999998" dx="0em" dy="0.3em" style="text-anchor: end; visibility: hidden; font-family: Roboto, sans-serif; font-size: 12px; font-weight: 200;" fill="rgb(50, 49, 63)" stroke="none" stroke-width="1px">1.55</text><text x="0" y="124.59999999999995" dx="0em" dy="0.3em" style="text-anchor: end; visibility: inherit; font-family: Roboto, sans-serif; font-size: 12px; font-weight: 200;" fill="rgb(50, 49, 63)" stroke="none" stroke-width="1px">1.6</text><text x="0" y="106.80000000000001" dx="0em" dy="0.3em" style="text-anchor: end; visibility: hidden; font-family: Roboto, sans-serif; font-size: 12px; font-weight: 200;" fill="rgb(50, 49, 63)" stroke="none" stroke-width="1px">1.65</text><text x="0" y="89" dx="0em" dy="0.3em" style="text-anchor: end; visibility: inherit; font-family: Roboto, sans-serif; font-size: 12px; font-weight: 200;" fill="rgb(50, 49, 63)" stroke="none" stroke-width="1px">1.7</text><text x="0" y="71.19999999999999" dx="0em" dy="0.3em" style="text-anchor: end; visibility: hidden; font-family: Roboto, sans-serif; font-size: 12px; font-weight: 200;" fill="rgb(50, 49, 63)" stroke="none" stroke-width="1px">1.75</text><text x="0" y="53.39999999999997" dx="0em" dy="0.3em" style="text-anchor: end; visibility: inherit; font-family: Roboto, sans-serif; font-size: 12px; font-weight: 200;" fill="rgb(50, 49, 63)" stroke="none" stroke-width="1px">1.8</text><text x="0" y="35.59999999999995" dx="0em" dy="0.3em" style="text-anchor: end; visibility: hidden; font-family: Roboto, sans-serif; font-size: 12px; font-weight: 200;" fill="rgb(50, 49, 63)" stroke="none" stroke-width="1px">1.85</text><text x="0" y="17.800000000000015" dx="0em" dy="0.3em" style="text-anchor: end; visibility: inherit; font-family: Roboto, sans-serif; font-size: 12px; font-weight: 200;" fill="rgb(50, 49, 63)" stroke="none" stroke-width="1px">1.9</text><text x="0" y="0" dx="0em" dy="0.3em" style="text-anchor: end; visibility: hidden; font-family: Roboto, sans-serif; font-size: 12px; font-weight: 200;" fill="rgb(50, 49, 63)" stroke="none" stroke-width="1px">1.95</text></g><line x1="51.5625" y1="0" x2="51.5625" y2="178" fill="rgb(0, 0, 0)" stroke="rgb(204, 204, 204)" stroke-width="1px"></line></g></g><g transform="translate(51, 0)" clip-path="url(#clip_0)"><clipPath id="clip_0"><rect width="278" height="178"></rect></clipPath><g><g><g><line x1="0" y1="0" x2="0" y2="178" fill="rgb(0, 0, 0)" stroke="rgb(60, 60, 60)" stroke-width="1px" opacity="0.25"></line><line x1="23.203125" y1="0" x2="23.203125" y2="178" fill="rgb(0, 0, 0)" stroke="rgb(60, 60, 60)" stroke-width="1px" opacity="0.25"></line><line x1="46.40625" y1="0" x2="46.40625" y2="178" fill="rgb(0, 0, 0)" stroke="rgb(60, 60, 60)" stroke-width="1px" opacity="0.25"></line><line x1="69.609375" y1="0" x2="69.609375" y2="178" fill="rgb(0, 0, 0)" stroke="rgb(60, 60, 60)" stroke-width="1px" opacity="0.25"></line><line x1="92.8125" y1="0" x2="92.8125" y2="178" fill="rgb(0, 0, 0)" stroke="rgb(60, 60, 60)" stroke-width="1px" opacity="0.25"></line><line x1="116.015625" y1="0" x2="116.015625" y2="178" fill="rgb(0, 0, 0)" stroke="rgb(60, 60, 60)" stroke-width="1px" opacity="0.25"></line><line x1="139.21875" y1="0" x2="139.21875" y2="178" fill="rgb(0, 0, 0)" stroke="rgb(60, 60, 60)" stroke-width="1px" opacity="0.25"></line><line x1="162.421875" y1="0" x2="162.421875" y2="178" fill="rgb(0, 0, 0)" stroke="rgb(60, 60, 60)" stroke-width="1px" opacity="0.25"></line><line x1="185.625" y1="0" x2="185.625" y2="178" fill="rgb(0, 0, 0)" stroke="rgb(60, 60, 60)" stroke-width="1px" opacity="0.25"></line><line x1="208.828125" y1="0" x2="208.828125" y2="178" fill="rgb(0, 0, 0)" stroke="rgb(60, 60, 60)" stroke-width="1px" opacity="0.25"></line><line x1="232.03125" y1="0" x2="232.03125" y2="178" fill="rgb(0, 0, 0)" stroke="rgb(60, 60, 60)" stroke-width="1px" opacity="0.25"></line><line x1="255.234375" y1="0" x2="255.234375" y2="178" fill="rgb(0, 0, 0)" stroke="rgb(60, 60, 60)" stroke-width="1px" opacity="0.25"></line><line x1="278.4375" y1="0" x2="278.4375" y2="178" fill="rgb(0, 0, 0)" stroke="rgb(60, 60, 60)" stroke-width="1px" opacity="0.25"></line></g><g><line x1="0" y1="178" x2="278.4375" y2="178" fill="rgb(0, 0, 0)" stroke="rgb(60, 60, 60)" stroke-width="1px" opacity="0.25"></line><line x1="0" y1="160.2" x2="278.4375" y2="160.2" fill="rgb(0, 0, 0)" stroke="rgb(60, 60, 60)" stroke-width="1px" opacity="0.25"></line><line x1="0" y1="142.39999999999998" x2="278.4375" y2="142.39999999999998" fill="rgb(0, 0, 0)" stroke="rgb(60, 60, 60)" stroke-width="1px" opacity="0.25"></line><line x1="0" y1="124.59999999999995" x2="278.4375" y2="124.59999999999995" fill="rgb(0, 0, 0)" stroke="rgb(60, 60, 60)" stroke-width="1px" opacity="0.25"></line><line x1="0" y1="106.80000000000001" x2="278.4375" y2="106.80000000000001" fill="rgb(0, 0, 0)" stroke="rgb(60, 60, 60)" stroke-width="1px" opacity="0.25"></line><line x1="0" y1="89" x2="278.4375" y2="89" fill="rgb(0, 0, 0)" stroke="rgb(60, 60, 60)" stroke-width="1px" opacity="0.25"></line><line x1="0" y1="71.19999999999999" x2="278.4375" y2="71.19999999999999" fill="rgb(0, 0, 0)" stroke="rgb(60, 60, 60)" stroke-width="1px" opacity="0.25"></line><line x1="0" y1="53.39999999999997" x2="278.4375" y2="53.39999999999997" fill="rgb(0, 0, 0)" stroke="rgb(60, 60, 60)" stroke-width="1px" opacity="0.25"></line><line x1="0" y1="35.59999999999995" x2="278.4375" y2="35.59999999999995" fill="rgb(0, 0, 0)" stroke="rgb(60, 60, 60)" stroke-width="1px" opacity="0.25"></line><line x1="0" y1="17.800000000000015" x2="278.4375" y2="17.800000000000015" fill="rgb(0, 0, 0)" stroke="rgb(60, 60, 60)" stroke-width="1px" opacity="0.25"></line><line x1="0" y1="0" x2="278.4375" y2="0" fill="rgb(0, 0, 0)" stroke="rgb(60, 60, 60)" stroke-width="1px" opacity="0.25"></line></g></g></g><g><g><line x1="0" y1="694.1999999999999" x2="278.4375" y2="694.1999999999999" fill="rgb(0, 0, 0)" stroke="rgb(153, 153, 153)" stroke-width="1.5px"></line></g></g><g><g><line x1="23.203125" y1="0" x2="23.203125" y2="178" fill="rgb(0, 0, 0)" stroke="rgb(153, 153, 153)" stroke-width="1.5px"></line></g></g><g><g><g><g><g><path stroke="rgb(204, 51, 17)" stroke-width="2px" d="M197.2265625,138.3070351600646L198.38671875,138.47304929494857L199.546875,138.33893765819315L200.70703125,138.83849242820466L201.8671875,139.1294289301701L203.02734375,139.41978555067521L204.18749999999997,139.62914223306134L205.34765625,139.59365360275632L206.5078125,139.33457420393083L207.66796875,139.5146103461147L208.828125,139.6885482885267L209.98828125,140.46788297123948L211.1484375,140.7158924530858L212.30859375,141.17290382074887L213.46875000000003,141.05772397187994L214.62890625,140.67473790165855L215.7890625,140.6846977517552L216.94921875,141.02722714895626L218.109375,141.3624055266609L219.26953125,141.6846743369361L220.4296875,141.8453327389439L221.58984374999997,142.26412661861548L222.75,142.37625094264746L223.91015625,142.5452081151344L225.0703125,142.96999820048927L226.23046875,142.69084137012842L227.390625,142.6702868139791L228.55078125,142.37397240538485L229.7109375,142.5004001829293L230.87109375000003,142.61849163122594L232.03125,142.51120658254678L233.19140625,142.91506813602794L234.3515625,143.35385836930564L235.51171875,143.11744452378207L236.671875,142.90764368209815L237.83203125,143.38479739582104L238.99218749999997,143.66538588551813L240.15234375,143.87057560250727L241.3125,144.22124470768358L242.47265625,144.11213513775772L243.6328125,144.04763699385782L244.79296875,144.25041321295285L245.953125,143.92231564618282L247.11328125,144.11312438072375L248.27343750000003,144.18053682936898L249.43359375,144.6107055967937L250.59375,145.00807306207065L251.75390625,144.12686387201268L252.9140625,144.33650047958238L254.07421875,144.62528026211697" style="fill: none;" fill="none"></path></g><g><path stroke="rgb(0, 119, 187)" stroke-width="2px" d="M116.015625,123.97338695526122L117.17578125,125.11309958696364L118.3359375,124.70134592640147L119.49609374999999,124.2494174589129L120.65625,123.93366424757764L121.81640625,124.46318416425152L122.9765625,124.78321137537415L124.13671875000001,124.93945798281773L125.296875,125.43353207678038L126.45703125,125.06930998550835L127.6171875,125.13114163643051L128.77734375,125.48420480526597L129.9375,126.2012968727696L131.09765625,126.11534470961806L132.2578125,125.4744929702846L133.41796875,125.93361497838683L134.578125,126.39435712085435L135.73828125,126.91520614086375L136.8984375,127.18906030159263L138.05859375,127.90559216212596L139.21875,128.0894815770372L140.37890625,128.25927826302444L141.5390625,129.08236052917215L142.69921875,129.70988765949647L143.85937500000003,129.74607819114223L145.01953125,130.0363267997501L146.1796875,129.77006534621336L147.33984375,130.11300156126754L148.5,130.09986525534566L149.66015625,130.1876229155893L150.8203125,130.97813045668798L151.98046874999997,131.0227874343662L153.140625,131.59362633004145L154.30078125,132.07610882576458L155.4609375,132.10056134537865L156.62109375,131.8707531027694L157.78125,132.5707231214867L158.94140625,132.61694070900106L160.1015625,132.40412980273413L161.26171875000003,132.61337105513792L162.421875,132.47693441428433L163.58203125,133.04321028568384L164.7421875,133.56663269164196L165.90234375,133.9078807304618L167.0625,134.39674687094504L168.22265625,133.9470361977953L169.38281249999997,134.37897294702586L170.54296875,134.52266830648782L171.703125,134.23890661743377L172.86328125,134.49294979779378L174.0234375,134.09561030988775L175.18359375,134.53000973299203L176.34375,135.1229428972914L177.50390625,135.16448808944915L178.66406250000003,134.31603072903513L179.82421875,134.42744123710372L180.984375,134.72281041486983L182.14453125,135.28152014937362L183.3046875,135.8420605118654L184.46484375,135.9296102008571L185.625,136.25486683615142L186.78515624999997,136.8386726651674L187.9453125,136.8712614985756L189.10546875,137.22882901981183L190.265625,137.32679944130598L191.42578125,137.60643168504728L192.5859375,137.74749174723448L193.74609375,137.83087160473727L194.90625,137.76407479694876L196.06640625000003,137.9343559041702" style="fill: none;" fill="none"></path></g><g><path stroke="rgb(255, 112, 67)" stroke-width="2px" d="M81.2109375,109.03507490158071L82.37109375,109.79467113018035L83.53125,110.33791108617973L84.69140624999999,110.35805011286455L85.8515625,110.29550533552778L87.01171875,110.36628200878508L88.171875,110.55175442051987L89.33203125000001,111.75953293015978L90.4921875,112.78006137854092L91.65234375,113.7759355957773L92.8125,114.37840046361805L93.97265625,114.35503419179949L95.1328125,114.80287189406228L96.29296875,115.7059662620687L97.453125,115.89087143931087L98.61328125,116.68889636402415L99.7734375,116.7731957993458L100.93359375,117.5177233718107L102.09374999999999,118.24913730222345L103.25390625,118.85187761793782L104.4140625,119.52783115742297L105.57421875,119.65219254170766L106.73437500000001,120.5119269059764L107.89453125,120.88942996603072L109.0546875,121.39517682774961L110.21484375,121.29786803087848L111.375,121.38650697339608L112.53515625,121.72307782974976L113.6953125,122.2815717037405L114.85546875,122.77494658743232" style="fill: none;" fill="none"></path></g><g><path stroke="rgb(187, 187, 187)" stroke-width="2px" d="M23.203125,-3.9185765266418615L24.36328125,4.82868940830237L25.523437499999996,15.239434394057989L26.683593750000004,21.803343325502773L27.84375,25.775113377250122L29.00390625,29.855050678040598L30.1640625,34.48731325872115L31.32421875,39.3282814480235L32.484375,44.4781040856218L33.64453125,46.32551322973949L34.8046875,48.39412241478539L35.96484375000001,51.02105378247596L37.125,55.585432195962866L38.28515625,57.54682966787713L39.4453125,60.74459031529183L40.60546875,64.18649422343606L41.765625,68.07271619922567L42.92578125,69.99206138063184L44.0859375,72.64534727755532L45.24609375,74.43174358968068L46.40625,75.401956536443L47.56640625,76.4605255853397L48.7265625,78.74293024646562L49.88671875,80.60850395667325L51.04687499999999,82.14954668138023L52.20703125,84.29417681945802L53.36718750000001,86.31098050692809L54.52734375,88.20887119266301L55.6875,89.24033724817518L56.84765625,90.15407945062893L58.0078125,91.0785165948786L59.16796875,92.18958162585841L60.328125,92.7875041539083L61.48828125,93.92157524822613L62.6484375,95.22616950607934L63.80859375,96.76044411296643L64.96875,97.37365222139164L66.12890625,98.17137730991816L67.2890625,99.46372829770476L68.44921875,101.08324079548504L69.609375,102.61749616766949L70.76953125,103.9758620048442L71.92968750000001,104.52991863891857L73.08984375,104.9540537453753L74.25,105.54636230099767L75.41015625,105.70473090905081L76.5703125,106.20673735678955L77.73046875,106.79463880385744L78.890625,107.49624117569552L80.05078125,108.49052985404595" style="fill: none;" fill="none"></path></g><g><path style="fill: none;" fill="none" stroke="none" stroke-width="1px"></path></g><g><path stroke="rgb(51, 187, 238)" stroke-width="2px" d="M206.5078125,102.60924835205068L207.66796875,103.00421823263159L208.828125,102.02794040563147L209.98828125,102.4936455467168L211.1484375,102.05107478327753L212.30859375,102.42496024616027L213.46875000000003,102.36838421752896L214.62890625,101.65310657867104L215.7890625,102.33622385770455L216.94921875,102.25194769029132L218.109375,102.67675793181597L219.26953125,102.68123624507362L220.4296875,103.11264752341755L221.58984374999997,103.37758910968938L222.75,103.5570219724661L223.91015625,104.13849392995778L225.0703125,104.81074222875878L226.23046875,104.85286395229394L227.390625,104.79544202227854L228.55078125,105.174510060244L229.7109375,104.90653796435748L230.87109375000003,105.58016142706573L232.03125,105.83535251841126L233.19140625,106.05643571841327L234.3515625,105.75750109935666L235.51171875,105.99902972762364L236.671875,106.53110504954407L237.83203125,106.23741864771517L238.99218749999997,106.09542934676145L240.15234375,105.84808671597344L241.3125,106.1271218725047L242.47265625,106.31504923098859L243.6328125,105.83273286181397L244.79296875,105.68861855664832L245.953125,105.82113267648921L247.11328125,105.49559105578278L248.27343750000003,105.78375951196193L249.43359375,106.26486599949098L250.59375,106.5413245762016L251.75390625,106.87491670203839L252.9140625,106.9889557586192L254.07421875,106.32738594417192" style="fill: none;" fill="none"></path></g><g><path stroke="rgb(204, 51, 17)" stroke-width="2px" d="M104.4140625,82.31201381683348L105.57421875,78.54254604578017L106.73437500000001,80.23140105033404L107.89453125,81.29453890779436L109.0546875,80.82898310549464L110.21484375,81.06534933821085L111.375,82.1826061573344L112.53515625,83.44426279113343L113.6953125,83.67005756919305L114.85546875,84.53623188919435L116.015625,85.58997714460222L117.17578125,83.18788411629586L118.3359375,83.9764611354632L119.49609374999999,85.25270080858597L120.65625,86.16916019338875L121.81640625,87.03822532053448L122.9765625,87.0932670035457L124.13671875000001,87.2540049766813L125.296875,88.23735430292659L126.45703125,88.916161078596L127.6171875,88.90879595000568L128.77734375,88.8307536851318L129.9375,88.86571712037458L131.09765625,89.24985151836435L132.2578125,89.49752712420057L133.41796875,89.68500577584327L134.578125,90.31378319230551L135.73828125,90.96404782630374L136.8984375,91.10256288683375L138.05859375,91.0529411864012L139.21875,90.15519873582669L140.37890625,89.61538203880492L141.5390625,90.50727045697349L142.69921875,91.53806828211118L143.85937500000003,92.3118549214725L145.01953125,91.88429014879078L146.1796875,92.1756154423958L147.33984375,92.74108253963182L148.5,93.0477700231196L149.66015625,93.70459840848753L150.8203125,93.86842409954525L151.98046874999997,94.07098243834018L153.140625,93.78449665896626L154.30078125,94.2979191792455L155.4609375,94.436744900506L156.62109375,93.7126901745114L157.78125,94.52167164563069L158.94140625,94.67318830537491L160.1015625,95.39191659956764L161.26171875000003,95.6676079599258L162.421875,95.2589146523573L163.58203125,95.67798013144248L164.7421875,95.09487466486297L165.90234375,95.46690736575165L167.0625,95.34968528248802L168.22265625,95.88747886358469L169.38281249999997,95.75759077274067L170.54296875,96.55255010726017L171.703125,97.36580843807445L172.86328125,97.63057084012738L174.0234375,97.42141852336353L175.18359375,95.44754342053668L176.34375,97.12479596504166L177.50390625,98.04677973966947L178.66406250000003,98.4085723375151L179.82421875,99.38616291850019L180.984375,99.30736635308992L182.14453125,99.69391180861913L183.3046875,99.9876634990509L184.46484375,99.42765734167901L185.625,99.39702416880134L186.78515624999997,99.68408268823157L187.9453125,99.93355588277534L189.10546875,99.67353845215065L190.265625,99.77837203369272L191.42578125,100.26455385223463L192.5859375,100.49900490960741L193.74609375,100.868588851221L194.90625,100.91676572223164L196.06640625000003,100.58370533025057L197.2265625,100.4833279802548L198.38671875,100.90797000134869L199.546875,101.61834107521106L200.70703125,102.30651116062951L201.8671875,101.94044592672445L203.02734375,101.58760080035842L204.18749999999997,101.36031030473897L205.34765625,101.6781808117496" style="fill: none;" fill="none"></path></g><g><path stroke="rgb(0, 119, 187)" stroke-width="2px" d="M81.2109375,74.36137170791625L82.37109375,74.47380722761153L83.53125,74.15343168414365L84.69140624999999,74.67464512200921L85.8515625,75.7098785364653L87.01171875,76.63518406850568L88.171875,75.26500580580266L89.33203125000001,72.05326614022914L90.4921875,71.16766460658769L91.65234375,72.26221844761595L92.8125,74.41830181222342L93.97265625,74.09464920093446L95.1328125,76.70505465754967L96.29296875,77.69800456071326L97.453125,77.76383613084998L98.61328125,78.02765756906042L99.7734375,79.36837184883917L100.93359375,80.30244529767613L102.09374999999999,80.35066651288636L103.25390625,80.70307548920073" style="fill: none;" fill="none"></path></g><g><path stroke="rgb(255, 112, 67)" stroke-width="2px" d="M26.683593750000004,-3.112917845589756L27.84375,5.400680755517135L29.00390625,11.635854385992838L30.1640625,17.35622952628468L31.32421875,21.490603369695002L32.484375,22.985245265571475L33.64453125,18.737591426846944L34.8046875,23.84845647158427L35.96484375000001,28.74166957010518L37.125,32.96364744459467L38.28515625,33.67663753407951L39.4453125,35.839232471968835L40.60546875,39.538497091207404L41.765625,43.00148864722226L42.92578125,44.37782892318312L44.0859375,44.59823241813299L45.24609375,46.82557324582586L46.40625,49.023203379586995L47.56640625,51.181929054631354L48.7265625,52.523969904383115L49.88671875,53.43320919915625L51.04687499999999,53.39027607747378L52.20703125,54.75015450563869L53.36718750000001,56.05507337629689L54.52734375,56.50274174958731L55.6875,57.32752492026064L56.84765625,58.768315219047956L58.0078125,59.39640652187027L59.16796875,60.34402525982675L60.328125,61.85997675420658L61.48828125,62.83658344260366L62.6484375,63.33427532853987L63.80859375,64.46886115321276L64.96875,64.84999677245796L66.12890625,66.20049764458638L67.2890625,64.62015217280266L68.44921875,65.3991921354954L69.609375,65.85037065146818L70.76953125,67.06080211139522L71.92968750000001,68.24133974213665L73.08984375,68.52003184981803L74.25,69.42100890191703L75.41015625,69.76928079437243L76.5703125,70.51195059489493L77.73046875,71.75281614708348L78.890625,72.04577278762189L80.05078125,72.51870119851947" style="fill: none;" fill="none"></path></g><g><path style="fill: none;" fill="none" stroke="none" stroke-width="1px"></path></g></g></g></g><g opacity="0.2"><g><g><g><path stroke="rgb(204, 51, 17)" stroke-width="2px" d="M197.2265625,138.3070351600647L198.38671875,138.5726577758789L199.546875,138.21019048690795L200.70703125,139.42596883773803L201.8671875,139.50927562713622L203.02734375,139.82145328521727L204.18749999999997,139.9285256385803L205.34765625,139.5419108390808L206.5078125,138.9524824142456L207.66796875,139.78194303512572L208.828125,139.94787759780883L209.98828125,141.63264389038085L211.1484375,141.08709688186644L212.30859375,141.85752553939818L213.46875000000003,140.88508958816527L214.62890625,140.10052890777587L215.7890625,140.69963331222533L216.94921875,141.5409342765808L218.109375,141.86512203216552L219.26953125,142.1680480957031L220.4296875,142.08631153106688L221.58984374999997,142.89230365753173L222.75,142.54443521499633L223.91015625,142.798641872406L225.0703125,143.60718030929564L226.23046875,142.27210731506347L227.390625,142.63945503234862L228.55078125,141.929501247406L229.7109375,142.69004173278807L230.87109375000003,142.7956287384033L232.03125,142.35027904510497L233.19140625,143.52086038589476L234.3515625,144.0120436668396L235.51171875,142.7628237724304L236.671875,142.59294242858886L237.83203125,144.10052795410155L238.99218749999997,144.08626861572264L240.15234375,144.17836017608641L241.3125,144.74724836349486L242.47265625,143.94847078323363L243.6328125,143.9508897781372L244.79296875,144.5545775413513L245.953125,143.43016929626464L247.11328125,144.39933748245238L248.27343750000003,144.28165550231932L249.43359375,145.25595874786376L250.59375,145.60412425994872L251.75390625,142.8050500869751L252.9140625,144.65095539093016L254.07421875,145.05844993591307" style="fill: none;" fill="none"></path></g><g><path stroke="rgb(0, 119, 187)" stroke-width="2px" d="M116.015625,123.97338695526122L117.17578125,125.7969271659851L118.3359375,124.30606241226195L119.49609374999999,123.71794958114623L120.65625,123.52141685485839L121.81640625,125.19570083618163L122.9765625,125.24085540771483L124.13671875000001,125.16726703643798L125.296875,126.16219539642333L126.45703125,124.52848262786864L127.6171875,125.22332830429076L128.77734375,126.01187820434569L129.9375,127.27459354400634L131.09765625,125.98658485412597L132.2578125,124.51396865844725L133.41796875,126.6219741821289L134.578125,127.08527536392211L135.73828125,127.69634742736815L136.8984375,127.59979982376097L138.05859375,128.98032445907592L139.21875,128.36530561447142L140.37890625,128.51396770477294L141.5390625,130.31696767807006L142.69921875,130.65117092132567L143.85937500000003,129.80036373138427L145.01953125,130.47169847488402L146.1796875,129.37067384719847L147.33984375,130.62740535736083L148.5,130.08016080856322L149.66015625,130.31925935745238L150.8203125,132.16389150619506L151.98046874999997,131.08977289199828L153.140625,132.4498846054077L154.30078125,132.79983253479003L155.4609375,132.13724012374877L156.62109375,131.52604074478148L157.78125,133.6206781387329L158.94140625,132.68626708984374L160.1015625,132.08491344451903L161.26171875000003,132.92723293304442L162.421875,132.27227945327758L163.58203125,133.89262409210204L164.7421875,134.3517663002014L165.90234375,134.4197527885437L167.0625,135.13004608154296L168.22265625,133.27247018814086L169.38281249999997,135.0268780708313L170.54296875,134.7382113456726L171.703125,133.8132640838623L172.86328125,134.87401456832885L174.0234375,133.49960107803344L175.18359375,135.18160886764525L176.34375,136.01234264373778L177.50390625,135.22680587768554L178.66406250000003,133.04334468841552L179.82421875,134.59455699920653L180.984375,135.16586418151854L182.14453125,136.11958475112914L183.3046875,136.68287105560302L184.46484375,136.06093473434447L185.625,136.742751789093L186.78515624999997,137.7143814086914L187.9453125,136.92014474868773L189.10546875,137.76518030166625L190.265625,137.47375507354735L191.42578125,138.02588005065917L192.5859375,137.95908184051513L193.74609375,137.9559413909912L194.90625,137.6638795852661L196.06640625000003,138.18977756500243" style="fill: none;" fill="none"></path></g><g><path stroke="rgb(255, 112, 67)" stroke-width="2px" d="M81.2109375,109.0350749015808L82.37109375,110.25042886734008L83.53125,110.8594214439392L84.69140624999999,110.38173360824584L85.8515625,110.21384687423705L87.01171875,110.46419162750243L88.171875,110.81698293685912L89.33203125000001,113.52048559188842L90.4921875,114.28514261245726L91.65234375,115.25469274520873L92.8125,115.27663345336913L93.97265625,114.32011194229125L95.1328125,115.47316617965697L96.29296875,117.05883855819701L97.453125,116.16801185607909L98.61328125,117.88537092208861L99.7734375,116.89960927963256L100.93359375,118.63432569503783L102.09374999999999,119.34614677429198L103.25390625,119.75593299865722L104.4140625,120.54172439575194L105.57421875,119.83873052597045L106.73437500000001,121.80151147842406L107.89453125,121.4556800842285L109.0546875,122.15379352569579L110.21484375,121.1519052505493L111.375,121.51946516036986L112.53515625,122.22793359756469L113.6953125,123.11931200027465L114.85546875,123.5150086402893" style="fill: none;" fill="none"></path></g><g><path stroke="rgb(187, 187, 187)" stroke-width="2px" d="M23.203125,-3.9185765266418615L24.36328125,10.077048969268784L25.523437499999996,25.233749580383286L26.683593750000004,29.52250022888182L27.84375,30.96065635681151L29.00390625,35.49907274246214L30.1640625,41.11152286529539L31.32421875,46.38645954132078L32.484375,52.07309217453001L33.64453125,49.06870050430296L34.8046875,51.478274059295636L35.96484375000001,54.94715518951414L37.125,62.41709632873533L38.28515625,60.48508329391478L39.4453125,65.53747243881224L40.60546875,69.34692258834838L41.765625,73.90040464401244L42.92578125,72.87059183120726L44.0859375,76.6248719215393L45.24609375,77.11117477416991L46.40625,76.85722274780272L47.56640625,78.04834432601928L48.7265625,82.1664921760559L49.88671875,83.40684242248534L51.04687499999999,84.46109981536864L52.20703125,87.51111288070678L53.36718750000001,89.33618087768554L54.52734375,91.05570430755614L55.6875,90.78753538131713L56.84765625,91.52469224929808L58.0078125,92.4651720046997L59.16796875,93.85617895126342L60.328125,93.68438787460326L61.48828125,95.62268180847167L62.6484375,97.18306083679198L63.80859375,99.06185598373412L64.96875,98.29346437454222L66.12890625,99.36796493530272L67.2890625,101.40225477218627L68.44921875,103.51250953674315L69.609375,104.91887922286986L70.76953125,106.01341075897216L71.92968750000001,105.36100358963012L73.08984375,105.5902564048767L74.25,106.43482513427733L75.41015625,105.94228382110595L76.5703125,106.95974702835082L77.73046875,107.67649097442626L78.890625,108.54864473342894L80.05078125,109.9819628715515" style="fill: none;" fill="none"></path></g><g><path style="fill: none;" fill="none" stroke="none" stroke-width="1px"></path></g><g><path stroke="rgb(51, 187, 238)" stroke-width="2px" d="M206.5078125,102.60924835205077L207.66796875,103.24120016098021L208.828125,101.09071369171141L209.98828125,103.04131479263305L211.1484375,101.47325439453124L212.30859375,102.94217844009398L213.46875000000003,102.28747959136962L214.62890625,100.61022491455077L215.7890625,103.3436891555786L216.94921875,102.12680740356444L218.109375,103.31012029647826L219.26953125,102.68792934417723L220.4296875,103.75835580825805L221.58984374999997,103.77448244094847L222.75,103.82596035003661L223.91015625,105.01029176712035L225.0703125,105.81883020401L226.23046875,104.9160358428955L227.390625,104.70931787490844L228.55078125,105.74307746887206L229.7109375,104.50459451675414L230.87109375000003,106.59057445526122L232.03125,106.21813411712645L233.19140625,106.38805789947509L234.3515625,105.30910129547118L235.51171875,106.36132164001464L236.671875,107.32921667098998L237.83203125,105.7968894958496L238.99218749999997,105.88244552612304L240.15234375,105.47707290649413L241.3125,106.5456745147705L242.47265625,106.59694023132323L243.6328125,105.10925836563109L244.79296875,105.4724471092224L245.953125,106.01990385055541L247.11328125,105.00727863311766L248.27343750000003,106.21601219177245L249.43359375,106.98652572631835L250.59375,106.95601243972777L251.75390625,107.37530488967894L252.9140625,107.16001434326171L254.07421875,105.33503122329711" style="fill: none;" fill="none"></path></g><g><path stroke="rgb(204, 51, 17)" stroke-width="2px" d="M104.4140625,82.31201381683348L105.57421875,76.28086538314818L106.73437500000001,81.8527018547058L107.89453125,82.54478902816771L109.0546875,80.2211534500122L110.21484375,81.39232892990111L111.375,83.78030128479003L112.53515625,85.28377027511596L113.6953125,84.00306100845336L114.85546875,85.8223998069763L116.015625,87.16103763580321L117.17578125,79.59781665802001L118.3359375,85.15675182342528L119.49609374999999,87.16456003189086L120.65625,87.54277200698851L121.81640625,88.3412100791931L122.9765625,87.17580623626708L124.13671875000001,87.4950711250305L125.296875,89.71222848892211L126.45703125,89.93430919647216L127.6171875,88.89774866104125L128.77734375,88.71369285583495L129.9375,88.91816158294677L131.09765625,89.82604856491088L132.2578125,89.869038772583L133.41796875,89.96622295379638L134.578125,91.25694770812987L135.73828125,91.93944377899169L136.8984375,91.31033535003661L138.05859375,90.97850866317748L139.21875,88.808585357666L140.37890625,88.80565710067748L141.5390625,91.84510297775267L142.69921875,93.08426494598388L143.85937500000003,93.47253484725951L145.01953125,91.24294300079345L146.1796875,92.61260337829589L147.33984375,93.5892831802368L148.5,93.50780124664306L149.66015625,94.68984098434447L150.8203125,94.11416263580321L151.98046874999997,94.37481994628905L153.140625,93.3547679901123L154.30078125,95.06805295944213L155.4609375,94.64498348236083L156.62109375,92.62660808563231L157.78125,95.73514385223388L158.94140625,94.9004632949829L160.1015625,96.47000904083251L161.26171875000003,96.08114500045775L162.421875,94.64587469100951L163.58203125,96.30657835006713L164.7421875,94.22021646499633L165.90234375,96.02495641708373L167.0625,95.17385215759276L168.22265625,96.69416923522948L169.38281249999997,95.5627586364746L170.54296875,97.7449891090393L171.703125,98.58569593429564L172.86328125,98.02771444320678L174.0234375,97.10769004821776L175.18359375,92.48673076629638L176.34375,99.6406747817993L177.50390625,99.42975540161132L178.66406250000003,98.95126123428344L179.82421875,100.85254878997802L180.984375,99.18917150497435L182.14453125,100.27372999191283L183.3046875,100.42829103469847L184.46484375,98.58764810562133L185.625,99.35107440948485L186.78515624999997,100.1146704673767L187.9453125,100.30776567459105L189.10546875,99.28351230621337L190.265625,99.93562240600585L191.42578125,100.9938265800476L192.5859375,100.85068149566649L193.74609375,101.42296476364135L194.90625,100.98903102874755L196.06640625000003,100.08411474227904L197.2265625,100.33276195526122L198.38671875,101.54493303298949L199.546875,102.68389768600463L200.70703125,103.33876628875731L201.8671875,101.39134807586669L203.02734375,101.05833311080931L204.18749999999997,101.0193745613098L205.34765625,102.15498657226561" style="fill: none;" fill="none"></path></g><g><path stroke="rgb(0, 119, 187)" stroke-width="2px" d="M81.2109375,74.36137170791625L82.37109375,74.5412685394287L83.53125,73.84587116241454L84.69140624999999,75.28759212493895L85.8515625,77.06147928237914L87.01171875,77.91521472930907L88.171875,73.30562896728514L89.33203125000001,67.37051887512206L90.4921875,69.86157436370848L91.65234375,73.8875033378601L92.8125,77.63287134170531L93.97265625,73.61093158721923L95.1328125,80.61213941574096L96.29296875,79.18548412322997L97.453125,77.86250610351561L98.61328125,78.4232036590576L99.7734375,81.37887592315673L100.93359375,81.70331830978392L102.09374999999999,80.42299098968505L103.25390625,81.23165674209594" style="fill: none;" fill="none"></path></g><g><path stroke="rgb(255, 112, 67)" stroke-width="2px" d="M25.523437499999996,-7.011919307708756L26.683593750000004,6.633758258819564L27.84375,15.412672710418686L29.00390625,19.77649707794188L30.1640625,25.269567680358872L31.32421875,27.40282411575316L32.484375,25.16444749832152L33.64453125,12.473127079009995L34.8046875,31.437495422363266L35.96484375000001,36.03710813522337L37.125,39.27363843917845L38.28515625,34.74379463195799L39.4453125,39.07888813018797L40.60546875,45.08304567337034L41.765625,48.19353361129759L42.92578125,46.441756916046124L44.0859375,44.92878170013426L45.24609375,50.16624517440794L46.40625,52.319447708129864L47.56640625,54.41989917755125L48.7265625,54.53698701858519L49.88671875,54.797050189971905L51.04687499999999,53.32587690353392L52.20703125,56.789962482452374L53.36718750000001,58.012446117401105L54.52734375,57.17424316406248L55.6875,58.56469841003416L56.84765625,60.929499340057355L58.0078125,60.33854312896727L59.16796875,61.76545305252073L60.328125,64.13390369415282L61.48828125,64.30149335861205L62.6484375,64.08081312179564L63.80859375,66.17073984146117L64.96875,65.42170019149779L66.12890625,68.22624893188475L67.2890625,62.249633979797345L68.44921875,66.5677520751953L69.609375,66.52713842391967L70.76953125,68.87644929885863L71.92968750000001,70.0121461868286L73.08984375,68.9380700111389L74.25,70.77247447967528L75.41015625,70.29168863296508L76.5703125,71.62595529556273L77.73046875,73.61411447525023L78.890625,72.48520774841307L80.05078125,73.22809381484984" style="fill: none;" fill="none"></path></g><g><path style="fill: none;" fill="none" stroke="none" stroke-width="1px"></path></g></g></g></g></g></g><g transform="translate(51, 178)" clip-path="url(#clip_1)"><clipPath id="clip_1"><rect width="278" height="22"></rect></clipPath><g><g><line x1="0" y1="0" x2="0" y2="5" style="visibility: inherit;" fill="rgb(0, 0, 0)" stroke="rgb(204, 204, 204)" stroke-width="1px"></line><line x1="23.203125" y1="0" x2="23.203125" y2="5" style="visibility: inherit;" fill="rgb(0, 0, 0)" stroke="rgb(204, 204, 204)" stroke-width="1px"></line><line x1="46.40625" y1="0" x2="46.40625" y2="5" style="visibility: inherit;" fill="rgb(0, 0, 0)" stroke="rgb(204, 204, 204)" stroke-width="1px"></line><line x1="69.609375" y1="0" x2="69.609375" y2="5" style="visibility: inherit;" fill="rgb(0, 0, 0)" stroke="rgb(204, 204, 204)" stroke-width="1px"></line><line x1="92.8125" y1="0" x2="92.8125" y2="5" style="visibility: inherit;" fill="rgb(0, 0, 0)" stroke="rgb(204, 204, 204)" stroke-width="1px"></line><line x1="116.015625" y1="0" x2="116.015625" y2="5" style="visibility: inherit;" fill="rgb(0, 0, 0)" stroke="rgb(204, 204, 204)" stroke-width="1px"></line><line x1="139.21875" y1="0" x2="139.21875" y2="5" style="visibility: inherit;" fill="rgb(0, 0, 0)" stroke="rgb(204, 204, 204)" stroke-width="1px"></line><line x1="162.421875" y1="0" x2="162.421875" y2="5" style="visibility: inherit;" fill="rgb(0, 0, 0)" stroke="rgb(204, 204, 204)" stroke-width="1px"></line><line x1="185.625" y1="0" x2="185.625" y2="5" style="visibility: inherit;" fill="rgb(0, 0, 0)" stroke="rgb(204, 204, 204)" stroke-width="1px"></line><line x1="208.828125" y1="0" x2="208.828125" y2="5" style="visibility: inherit;" fill="rgb(0, 0, 0)" stroke="rgb(204, 204, 204)" stroke-width="1px"></line><line x1="232.03125" y1="0" x2="232.03125" y2="5" style="visibility: inherit;" fill="rgb(0, 0, 0)" stroke="rgb(204, 204, 204)" stroke-width="1px"></line><line x1="255.234375" y1="0" x2="255.234375" y2="5" style="visibility: inherit;" fill="rgb(0, 0, 0)" stroke="rgb(204, 204, 204)" stroke-width="1px"></line><line x1="278.4375" y1="0" x2="278.4375" y2="5" style="visibility: inherit;" fill="rgb(0, 0, 0)" stroke="rgb(204, 204, 204)" stroke-width="1px"></line></g><g transform="translate(0, 8)"><text x="0" y="0" dx="0em" dy="0.95em" style="text-anchor: middle; visibility: hidden; font-family: Roboto, sans-serif; font-size: 12px; font-weight: 200;" fill="rgb(50, 49, 63)" stroke="none" stroke-width="1px">-20</text><text x="23.203125" y="0" dx="0em" dy="0.95em" style="text-anchor: middle; visibility: inherit; font-family: Roboto, sans-serif; font-size: 12px; font-weight: 200;" fill="rgb(50, 49, 63)" stroke="none" stroke-width="1px">0</text><text x="46.40625" y="0" dx="0em" dy="0.95em" style="text-anchor: middle; visibility: hidden; font-family: Roboto, sans-serif; font-size: 12px; font-weight: 200;" fill="rgb(50, 49, 63)" stroke="none" stroke-width="1px">20</text><text x="69.609375" y="0" dx="0em" dy="0.95em" style="text-anchor: middle; visibility: inherit; font-family: Roboto, sans-serif; font-size: 12px; font-weight: 200;" fill="rgb(50, 49, 63)" stroke="none" stroke-width="1px">40</text><text x="92.8125" y="0" dx="0em" dy="0.95em" style="text-anchor: middle; visibility: hidden; font-family: Roboto, sans-serif; font-size: 12px; font-weight: 200;" fill="rgb(50, 49, 63)" stroke="none" stroke-width="1px">60</text><text x="116.015625" y="0" dx="0em" dy="0.95em" style="text-anchor: middle; visibility: inherit; font-family: Roboto, sans-serif; font-size: 12px; font-weight: 200;" fill="rgb(50, 49, 63)" stroke="none" stroke-width="1px">80</text><text x="139.21875" y="0" dx="0em" dy="0.95em" style="text-anchor: middle; visibility: hidden; font-family: Roboto, sans-serif; font-size: 12px; font-weight: 200;" fill="rgb(50, 49, 63)" stroke="none" stroke-width="1px">100</text><text x="162.421875" y="0" dx="0em" dy="0.95em" style="text-anchor: middle; visibility: inherit; font-family: Roboto, sans-serif; font-size: 12px; font-weight: 200;" fill="rgb(50, 49, 63)" stroke="none" stroke-width="1px">120</text><text x="185.625" y="0" dx="0em" dy="0.95em" style="text-anchor: middle; visibility: hidden; font-family: Roboto, sans-serif; font-size: 12px; font-weight: 200;" fill="rgb(50, 49, 63)" stroke="none" stroke-width="1px">140</text><text x="208.828125" y="0" dx="0em" dy="0.95em" style="text-anchor: middle; visibility: inherit; font-family: Roboto, sans-serif; font-size: 12px; font-weight: 200;" fill="rgb(50, 49, 63)" stroke="none" stroke-width="1px">160</text><text x="232.03125" y="0" dx="0em" dy="0.95em" style="text-anchor: middle; visibility: hidden; font-family: Roboto, sans-serif; font-size: 12px; font-weight: 200;" fill="rgb(50, 49, 63)" stroke="none" stroke-width="1px">180</text><text x="255.234375" y="0" dx="0em" dy="0.95em" style="text-anchor: middle; visibility: inherit; font-family: Roboto, sans-serif; font-size: 12px; font-weight: 200;" fill="rgb(50, 49, 63)" stroke="none" stroke-width="1px">200</text><text x="278.4375" y="0" dx="0em" dy="0.95em" style="text-anchor: middle; visibility: hidden; font-family: Roboto, sans-serif; font-size: 12px; font-weight: 200;" fill="rgb(50, 49, 63)" stroke="none" stroke-width="1px">220</text></g><line x1="0" y1="0" x2="278.4375" y2="0" fill="rgb(0, 0, 0)" stroke="rgb(204, 204, 204)" stroke-width="1px"></line></g></g></g></g></svg>